HIERARCHY
ROOT Hips
{
	OFFSET 0.00000 0.00000 0.00000
	CHANNELS 6 Xposition Yposition Zposition Zrotation Yrotation Xrotation 
	JOINT LHipJoint
	{
		OFFSET 0 0 0
		CHANNELS 3 Zrotation Yrotation Xrotation
		JOINT LeftUpLeg
		{
			OFFSET 1.17584 -1.63585 1.00361
			CHANNELS 3 Zrotation Yrotation Xrotation
			JOINT LeftLeg
			{
				OFFSET 2.23889 -6.15131 0.00000
				CHANNELS 3 Zrotation Yrotation Xrotation
				JOINT LeftFoot
				{
					OFFSET 2.65161 -7.28525 0.00000
					CHANNELS 3 Zrotation Yrotation Xrotation
					JOINT LeftToeBase
					{
						OFFSET 0.24898 -0.68407 1.57235
						CHANNELS 3 Zrotation Yrotation Xrotation
						End Site
						{
							OFFSET 0.00000 -0.00000 0.85838
						}
					}
				}
			}
		}
	}
	JOINT RHipJoint
	{
		OFFSET 0 0 0
		CHANNELS 3 Zrotation Yrotation Xrotation
		JOINT RightUpLeg
		{
			OFFSET -1.15592 -1.63585 1.00361
			CHANNELS 3 Zrotation Yrotation Xrotation
			JOINT RightLeg
			{
				OFFSET -2.34071 -6.43104 0.00000
				CHANNELS 3 Zrotation Yrotation Xrotation
				JOINT RightFoot
				{
					OFFSET -2.59113 -7.11908 0.00000
					CHANNELS 3 Zrotation Yrotation Xrotation
					JOINT RightToeBase
					{
						OFFSET -0.17867 -0.49089 1.70981
						CHANNELS 3 Zrotation Yrotation Xrotation
						End Site
						{
							OFFSET -0.00000 -0.00000 0.89861
						}
					}
				}
			}
		}
	}
	JOINT LowerBack
	{
		OFFSET 0 0 0
		CHANNELS 3 Zrotation Yrotation Xrotation
		JOINT Spine
		{
			OFFSET -0.02255 1.90764 -0.16605
			CHANNELS 3 Zrotation Yrotation Xrotation
			JOINT Spine1
			{
				OFFSET -0.00365 1.92150 -0.04898
				CHANNELS 3 Zrotation Yrotation Xrotation
				JOINT Neck
				{
					OFFSET 0 0 0
					CHANNELS 3 Zrotation Yrotation Xrotation
					JOINT Neck1
					{
						OFFSET 0.00372 1.59170 0.08694
						CHANNELS 3 Zrotation Yrotation Xrotation
						JOINT Head
						{
							OFFSET 0.12558 1.58643 -0.08078
							CHANNELS 3 Zrotation Yrotation Xrotation
							End Site
							{
								OFFSET 0.04211 1.60835 -0.03803
							}
						}
					}
				}
				JOINT LeftShoulder
				{
					OFFSET 0 0 0
					CHANNELS 3 Zrotation Yrotation Xrotation
					JOINT LeftArm
					{
						OFFSET 3.69324 0.96316 0.19077
						CHANNELS 3 Zrotation Yrotation Xrotation
						JOINT LeftForeArm
						{
							OFFSET 4.87796 -0.00000 -0.00000
							CHANNELS 3 Zrotation Yrotation Xrotation
							JOINT LeftHand
							{
								OFFSET 3.23169 -0.00000 0.00000
								CHANNELS 3 Zrotation Yrotation Xrotation
								JOINT LeftFingerBase
								{
									OFFSET 0 0 0
									CHANNELS 3 Zrotation Yrotation Xrotation
									JOINT LeftHandIndex1
									{
										OFFSET 0.73132 -0.00000 0.00000
										CHANNELS 3 Zrotation Yrotation Xrotation
										End Site
										{
											OFFSET 0.58961 -0.00000 0.00000
										}
									}
								}
								JOINT LThumb
								{
									OFFSET 0 0 0
									CHANNELS 3 Zrotation Yrotation Xrotation
									End Site
									{
										OFFSET 0.59861 -0.00000 0.59861
									}
								}
							}
						}
					}
				}
				JOINT RightShoulder
				{
					OFFSET 0 0 0
					CHANNELS 3 Zrotation Yrotation Xrotation
					JOINT RightArm
					{
						OFFSET -3.66103 0.75145 0.08281
						CHANNELS 3 Zrotation Yrotation Xrotation
						JOINT RightForeArm
						{
							OFFSET -4.91430 -0.00000 0.00000
							CHANNELS 3 Zrotation Yrotation Xrotation
							JOINT RightHand
							{
								OFFSET -3.29093 -0.00000 0.00000
								CHANNELS 3 Zrotation Yrotation Xrotation
								JOINT RightFingerBase
								{
									OFFSET 0 0 0
									CHANNELS 3 Zrotation Yrotation Xrotation
									JOINT RightHandIndex1
									{
										OFFSET -0.54512 -0.00000 0.00000
										CHANNELS 3 Zrotation Yrotation Xrotation
										End Site
										{
											OFFSET -0.43949 -0.00000 0.00000
										}
									}
								}
								JOINT RThumb
								{
									OFFSET 0 0 0
									CHANNELS 3 Zrotation Yrotation Xrotation
									End Site
									{
										OFFSET -0.44620 -0.00000 0.44620
									}
								}
							}
						}
					}
				}
			}
		}
	}
}
MOTION
Frames: 9
Frame Time: .0083333
7.2058 15.2350 1.4591 208.5350 -67.0185 558.3770 0.0000 0.0000 0.0000 18.0410 -6.4847 -89.6978 4.0827 12.2697 36.6928 0.0619 3.5589 -7.3195 3.4128 -11.3351 -33.4185 0.0000 0.0000 0.0000 22.3486 2.6578 -68.2234 -12.2537 -18.4958 66.7906 0.0237 20.1758 -14.0061 -1.1480 6.8034 -19.1343 -2.8303 -0.7583 15.2187 -4.9092 -2.0859 6.9081 -3.2143 -1.2406 -1.3043 1.6563 7.2207 -6.8468 -1.6414 9.0655 -17.4655 -0.9569 4.1661 -4.4414 -0.0000 -0.0000 0.0000 -41.3454 -51.1246 23.4492 6.5844 -11.2332 -0.6482 -0.0000 0.0000 -1.7914 15.9649 -12.1764 -3.4531 -7.1250 0.0000 -0.0000 -7.8267 17.4022 5.1765 -0.0000 -0.0000 0.0000 -68.7553 68.7129 -84.1297 -33.7611 43.9069 -13.9471 0.0000 -0.0000 -39.8936 -16.7693 -18.6043 5.4912 7.1250 -0.0000 -0.0000 11.1455 -49.0252 -1.1190
7.2470 15.1411 1.4916 208.4980 -66.3429 558.7390 0.0000 0.0000 0.0000 17.5400 -5.5873 -91.9242 4.8283 13.1878 40.0757 0.1077 1.1248 -6.7176 3.2906 -11.1513 -32.7918 0.0000 0.0000 0.0000 21.8540 2.6959 -71.2694 -13.5824 -18.9825 70.9250 0.3629 20.9312 -11.6781 -0.9019 6.0521 -16.9358 -2.9478 -0.7727 15.3731 -4.9760 -2.1446 6.9675 -3.2073 -1.2765 -1.3239 1.6302 7.3740 -6.6663 -1.8857 9.2589 -17.6261 -1.0492 4.2739 -4.5199 0.0000 0.0000 0.0000 -40.8591 -51.3706 22.1149 6.6909 -11.4095 -0.6692 -0.0000 0.0000 -2.1763 17.3292 -12.2429 -3.7856 -7.1250 0.0000 -0.0000 -6.8784 17.2305 4.5654 0.0000 0.0000 0.0000 -69.2756 67.8688 -84.3201 -34.4326 44.4027 -14.4149 0.0000 -0.0000 -40.7940 -17.6955 -18.7727 5.8624 7.1250 -0.0000 -0.0000 10.3174 -49.3356 -1.1137
7.2841 15.0240 1.5284 208.6530 -65.6750 558.7480 0.0000 0.0000 0.0000 17.2893 -4.7537 -94.2460 5.8145 14.2461 44.2326 0.1341 -1.1406 -6.6092 3.1686 -10.9631 -32.1557 0.0000 0.0000 0.0000 21.3853 2.6838 -74.1891 -14.9728 -19.3830 75.1548 0.5797 21.3876 -10.0877 -0.7765 5.6262 -15.7036 -2.8612 -0.8016 15.5743 -5.0330 -2.1964 7.0360 -3.3054 -1.3052 -1.3650 1.6260 7.5369 -6.4318 -2.1925 9.4590 -17.7999 -1.1697 4.3877 -4.6083 0.0000 0.0000 0.0000 -40.5921 -51.4363 20.6412 6.8443 -11.6627 -0.6998 -0.0000 0.0000 -2.3875 18.4371 -12.1578 -4.0162 -7.1250 0.0000 -0.0000 -6.1066 17.2304 4.0469 0.0000 0.0000 0.0000 -69.5291 67.1560 -84.2965 -35.3057 45.0292 -15.0292 0.0000 -0.0000 -41.6088 -18.6623 -19.0130 6.2792 7.1250 -0.0000 -0.0000 9.4663 -49.7300 -1.1128
7.3169 14.8837 1.5678 208.9330 -64.9761 558.4530 0.0000 0.0000 0.0000 17.2216 -3.9276 -96.5763 7.0576 15.3802 49.0918 0.1459 -3.1499 -6.8135 3.0180 -10.7241 -31.3550 0.0000 0.0000 0.0000 20.9466 2.6202 -76.9487 -16.3994 -19.6863 79.4195 0.6877 21.6099 -9.2605 -0.7429 5.5058 -15.3570 -2.6445 -0.8356 15.8048 -5.0837 -2.2388 7.1382 -3.4722 -1.3280 -1.3900 1.6452 7.7171 -6.1908 -2.5434 9.6758 -17.9799 -1.3105 4.5107 -4.6959 -0.0000 -0.0000 0.0000 -40.4355 -51.3674 19.2205 7.0044 -11.9265 -0.7326 -0.0000 0.0000 -2.6868 19.3306 -11.8899 -4.1338 -7.1250 0.0000 -0.0000 -5.4791 17.4369 3.6021 -0.0000 -0.0000 0.0000 -69.6586 66.5714 -84.2370 -36.3799 45.7727 -15.7941 0.0000 -0.0000 -42.2663 -19.5144 -19.2132 6.6522 7.1250 -0.0000 -0.0000 8.7054 -50.0700 -1.0953
7.3457 14.7224 1.6080 209.2480 -64.2303 557.9320 0.0000 0.0000 0.0000 17.2754 -3.0853 -98.8328 8.5534 16.5116 54.5325 0.1464 -4.8537 -7.1202 2.8320 -10.4180 -30.3414 0.0000 0.0000 0.0000 20.5263 2.4918 -79.5236 -17.8333 -19.8871 83.6535 0.7176 21.6626 -9.0172 -0.7419 5.5024 -15.3473 -2.3876 -0.8689 16.0722 -5.1178 -2.2770 7.2760 -3.6448 -1.3496 -1.3973 1.6733 7.9170 -5.9753 -2.9247 9.9133 -18.1431 -1.4624 4.6457 -4.7691 0.0000 0.0000 0.0000 -40.3455 -51.1817 18.0113 7.1418 -12.1524 -0.7612 -0.0000 0.0000 -3.2395 20.0487 -11.4318 -4.1370 -7.1250 0.0000 -0.0000 -4.9670 17.8591 3.2166 0.0000 0.0000 0.0000 -69.7757 66.1290 -84.2436 -37.6606 46.6211 -16.7184 0.0000 -0.0000 -42.7176 -20.0863 -19.3694 6.9150 7.1250 -0.0000 -0.0000 8.1977 -50.3232 -1.0819
7.3714 14.5426 1.6472 209.4930 -63.4303 557.3200 0.0000 0.0000 0.0000 17.3742 -2.2070 -100.9886 10.2760 17.5622 60.4069 0.1346 -6.2535 -7.3366 2.6686 -10.1383 -29.4257 0.0000 0.0000 0.0000 20.0947 2.2979 -81.9512 -19.2495 -19.9865 87.8053 0.7025 21.6014 -9.1020 -0.7172 5.4117 -15.0867 -2.1674 -0.8829 16.3765 -5.1434 -2.2984 7.4214 -3.7901 -1.3646 -1.4129 1.7204 8.1229 -5.7973 -3.3088 10.1565 -18.2585 -1.6154 4.7836 -4.8148 -0.0000 -0.0000 0.0000 -40.3234 -50.9052 17.2256 7.2376 -12.3096 -0.7815 -0.0000 0.0000 -4.1698 20.6217 -10.8076 -4.0362 -7.1250 0.0000 -0.0000 -4.5501 18.4723 2.8831 -0.0000 -0.0000 0.0000 -69.8048 65.8521 -84.2414 -39.1568 47.5624 -17.8145 0.0000 -0.0000 -42.9451 -20.3161 -19.5190 7.0518 7.1250 -0.0000 -0.0000 8.0195 -50.5155 -1.0962
7.3928 14.3509 1.6845 209.5940 -62.5722 556.6460 0.0000 0.0000 0.0000 17.4488 -1.3121 -102.9241 12.1784 18.4651 66.5533 0.1092 -7.4053 -7.3612 2.5739 -9.9711 -28.8833 0.0000 0.0000 0.0000 19.6393 2.0080 -84.1721 -20.6163 -19.9909 91.8023 0.6774 21.5152 -9.2606 -0.6287 5.0736 -14.1186 -2.0460 -0.8648 16.7869 -5.1566 -2.3006 7.5689 -3.8678 -1.3738 -1.4763 1.7473 8.3321 -5.6357 -3.6621 10.4088 -18.3196 -1.7524 4.9275 -4.8386 0.0000 0.0000 0.0000 -40.3990 -50.5199 16.9627 7.2964 -12.4060 -0.7941 -0.0000 0.0000 -5.5133 21.1127 -10.0911 -3.8704 -7.1250 0.0000 -0.0000 -4.1867 19.1946 2.5843 0.0000 0.0000 0.0000 -69.7034 65.7394 -84.1304 -40.8963 48.5920 -19.1087 0.0000 -0.0000 -42.9898 -20.2480 -19.6577 7.0737 7.1250 -0.0000 -0.0000 8.1292 -50.6476 -1.1378
7.4110 14.1483 1.7195 209.4890 -61.6846 556.0540 0.0000 0.0000 0.0000 17.4527 -0.4097 -104.6858 14.2020 19.1742 72.8205 0.0674 -8.4115 -7.1491 2.6195 -10.0520 -29.1454 0.0000 0.0000 0.0000 19.1314 1.6244 -86.3058 -21.9166 -19.9117 95.6118 0.6759 21.4957 -9.2546 -0.4712 4.4025 -12.2118 -2.0695 -0.8167 17.2484 -5.1462 -2.2885 7.6897 -3.8391 -1.3793 -1.5871 1.7243 8.5400 -5.4822 -3.9640 10.6678 -18.3262 -1.8618 5.0774 -4.8449 0.0000 0.0000 0.0000 -40.7014 -49.9990 16.9940 7.3605 -12.5110 -0.8079 -0.0000 0.0000 -6.9464 21.5440 -9.3611 -3.6743 -7.1250 0.0000 -0.0000 -3.8638 19.9408 2.3196 0.0000 0.0000 0.0000 -69.4066 65.7588 -83.7909 -42.8918 49.6928 -20.6182 0.0000 -0.0000 -42.8875 -19.9490 -19.7727 7.0001 7.1250 -0.0000 -0.0000 8.4583 -50.7169 -1.1989
7.4259 13.9367 1.7526 209.1130 -60.7766 555.6350 0.0000 0.0000 0.0000 17.3288 0.4850 -106.2699 16.2821 19.6653 79.0710 0.0081 -9.3896 -6.7256 2.8320 -10.4180 -30.3413 0.0000 0.0000 0.0000 18.5350 1.1511 -88.4026 -23.1334 -19.7629 99.1965 0.7207 21.6316 -8.9510 -0.2833 3.4232 -9.4592 -2.2795 -0.7310 17.7483 -5.1125 -2.2595 7.7770 -3.6818 -1.3805 -1.7445 1.6561 8.7413 -5.3535 -4.2175 10.9246 -18.2783 -1.9440 5.2277 -4.8310 0.0000 0.0000 0.0000 -41.2459 -49.3594 17.3248 7.4343 -12.6318 -0.8240 -0.0000 0.0000 -8.5109 21.9337 -8.6899 -3.4816 -7.1250 0.0000 -0.0000 -3.5708 20.6317 2.0876 0.0000 0.0000 0.0000 -68.8318 65.8613 -83.1101 -45.1643 50.8487 -22.3661 0.0000 -0.0000 -42.7070 -19.5588 -19.8549 6.8803 7.1250 -0.0000 -0.0000 8.8665 -50.7371 -1.2620
